<svg width="119" height="106" viewBox="0 0 119 106" fill="none" xmlns="http://www.w3.org/2000/svg">
<path d="M109.197 0H52.9987C47.599 0 43.2217 4.39066 43.2217 9.80682C43.2217 15.223 47.599 19.6136 52.9987 19.6136H109.197C114.597 19.6136 118.974 15.223 118.974 9.80682C118.974 4.39066 114.597 0 109.197 0Z" fill="#008BAA"/>
<path fill-rule="evenodd" clip-rule="evenodd" d="M53.076 85.4043C71.1882 85.4043 85.8713 70.6765 85.8713 52.509C85.8713 34.3413 71.1882 19.6137 53.076 19.6137C34.9635 19.6137 20.2807 34.3413 20.2807 52.509C20.2807 70.6765 34.9635 85.4043 53.076 85.4043ZM53.076 105.018C81.9877 105.018 105.425 81.5089 105.425 52.509C105.425 23.5091 81.9877 0 53.076 0C24.1642 0 0.726562 23.5091 0.726562 52.509C0.726562 81.5089 24.1642 105.018 53.076 105.018Z" fill="#EEEEEE"/>
</svg>
